<?xml version="1.0" encoding="UTF-8"?>
<svg xmlns="http://www.w3.org/2000/svg" viewBox="0 0 128 128" width="128" height="128">
  <!-- 배경 -->
  <rect width="128" height="128" rx="16" fill="#1a0a0a"/>
  
  <!-- 불꽃 (야화) -->
  <ellipse cx="64" cy="90" rx="22" ry="8" fill="#8B0000" opacity="0.6"/>
  <path d="M64 30 C58 45 48 50 52 65 C54 73 60 76 64 78 C68 76 74 73 76 65 C80 50 70 45 64 30Z" fill="#CC3300"/>
  <path d="M64 38 C60 50 54 54 57 65 C59 70 62 73 64 75 C66 73 69 70 71 65 C74 54 68 50 64 38Z" fill="#FF6600"/>
  <path d="M64 48 C62 56 58 59 60 66 C61 70 63 72 64 73 C65 72 67 70 68 66 C70 59 66 56 64 48Z" fill="#FFAA00"/>
  <path d="M64 58 C63 63 61 65 62 68 C63 70 63.5 71 64 71.5 C64.5 71 65 70 66 68 C67 65 65 63 64 58Z" fill="#FFEE88"/>

  <!-- 검 -->
  <rect x="62" y="20" width="4" height="55" rx="1" fill="#C0C0C0"/>
  <rect x="54" y="68" width="20" height="4" rx="2" fill="#8B6914"/>
  <rect x="61" y="72" width="6" height="10" rx="1" fill="#8B6914"/>
  
  <!-- 텍스트 야화전 -->
  <text x="64" y="112" font-family="serif" font-size="13" font-weight="bold" fill="#CC3300" text-anchor="middle" letter-spacing="3">야화전</text>
</svg>
